<svg width="263" height="43" viewBox="0 0 263 43" fill="none" xmlns="http://www.w3.org/2000/svg">
<g clip-path="url(#clip0_29_993)">
<path d="M134.363 26.4675L133.522 28.0151C133.423 28.198 133.277 28.3505 133.099 28.4565C132.921 28.5626 132.718 28.6182 132.511 28.6175H128.497L128.34 28.426L128.695 27.7726L128.94 27.3149L129.072 27.0683C129.17 26.886 129.316 26.7339 129.493 26.6282C129.67 26.5224 129.872 26.4669 130.079 26.4675H134.363ZM132.829 26.9253H130.439L129.768 28.1581H132.16L132.37 27.771L132.615 27.3132L132.829 26.9253Z" fill="#B9B9B9"/>
<path d="M118.023 26.5366C118.013 26.5159 117.997 26.4985 117.978 26.4863C117.958 26.4741 117.935 26.4676 117.912 26.4675H113.171L113.056 26.6796L112.818 27.1234L112.614 27.4998L112.13 28.3931L112.007 28.6192H113.291L113.749 27.7759H116.142L116.003 28.0274L115.685 28.6134H116.969L117.201 28.186L117.317 27.9715L117.765 27.1497L118.023 26.6746C118.034 26.6536 118.041 26.6299 118.041 26.6057C118.041 26.5815 118.035 26.5577 118.023 26.5366ZM116.58 26.9672L116.391 27.3116H113.999L114.207 26.9311H116.56C116.564 26.9312 116.568 26.9324 116.572 26.9345C116.575 26.9367 116.578 26.9398 116.58 26.9434C116.582 26.947 116.583 26.9511 116.583 26.9553C116.583 26.9595 116.582 26.9636 116.58 26.9672Z" fill="#B9B9B9"/>
<path d="M119.183 27.7718H121.167L121.646 27.3132H119.431L119.52 27.1489L119.643 26.9212H122.091C122.173 26.9205 122.254 26.9378 122.329 26.9718C122.404 27.0059 122.47 27.0559 122.524 27.1184L122.532 27.1283L123.569 26.4675H118.603L118.486 26.6812L118.065 27.462L117.689 28.1548L117.562 28.3899L117.439 28.6159H122.207L122.687 28.1573H118.972L119.183 27.7718Z" fill="#B9B9B9"/>
<path d="M128.778 26.5366C128.767 26.5159 128.751 26.4985 128.732 26.4863C128.712 26.4741 128.69 26.4676 128.667 26.4675H123.928L123.813 26.6796L122.881 28.3899L122.758 28.6159H124.042L124.287 28.1565L124.495 27.7726L124.745 27.3108L124.841 27.1349L124.904 27.019L124.954 26.9253H127.307C127.311 26.9254 127.315 26.9266 127.318 26.9288C127.322 26.931 127.325 26.934 127.327 26.9376C127.329 26.9413 127.33 26.9456 127.33 26.95C127.33 26.9544 127.329 26.9586 127.327 26.9623L127.245 27.1102L127.144 27.3116H125.206L124.768 27.7726H125.919L126.898 28.6159H128.185L127.382 27.9263L128.372 27.4176L128.78 26.6779C128.792 26.6561 128.797 26.6316 128.797 26.6069C128.796 26.5822 128.79 26.558 128.778 26.5366Z" fill="#B9B9B9"/>
<path d="M139.675 26.5366C139.664 26.5159 139.648 26.4985 139.629 26.4863C139.609 26.4741 139.587 26.4676 139.564 26.4675H134.825L134.616 26.8522L133.898 28.1712L133.846 28.2674L133.658 28.6159H137.897C138.118 28.6159 138.335 28.5565 138.525 28.444C138.715 28.3314 138.872 28.1697 138.98 27.9756L139.093 27.7726L138.915 27.6025L139.29 27.4102L139.679 26.6705C139.689 26.6496 139.694 26.6264 139.693 26.603C139.692 26.5797 139.686 26.5569 139.675 26.5366ZM138.233 26.959L138.152 27.1061L138.044 27.3091H136.116L135.636 27.7677H137.795L137.585 28.154H135.192L135.304 27.9485L135.687 27.2417L135.746 27.1324L135.791 27.0502L135.86 26.922H138.214C138.218 26.9221 138.222 26.9233 138.225 26.9255C138.229 26.9277 138.232 26.9307 138.233 26.9343C138.235 26.9381 138.236 26.9424 138.236 26.9467C138.236 26.951 138.235 26.9552 138.233 26.959Z" fill="#B9B9B9"/>
<path d="M145.197 26.5366C145.187 26.5158 145.171 26.4984 145.151 26.4862C145.131 26.474 145.109 26.4676 145.086 26.4675H140.345L140.23 26.6796L139.302 28.3899L139.18 28.6159H140.463L140.921 27.7726H143.316L143.103 28.1663L143.097 28.1778L142.859 28.6159H144.143L144.375 28.1885L144.491 27.974L144.939 27.1521L145.197 26.6771C145.209 26.6557 145.215 26.6316 145.215 26.6069C145.215 26.5823 145.209 26.5581 145.197 26.5366ZM143.753 26.9672L143.565 27.314H141.173L141.38 26.9335H143.733C143.737 26.9336 143.741 26.9348 143.745 26.937C143.748 26.9392 143.751 26.9422 143.753 26.9459C143.755 26.9492 143.755 26.9528 143.755 26.9565C143.755 26.9602 143.755 26.9639 143.753 26.9672Z" fill="#B9B9B9"/>
<path d="M150.627 26.4675H145.494L145.67 26.9237H147.383L147.076 27.4883L146.587 28.3923V28.3973L146.468 28.6167H147.751L148.555 27.1373L148.579 27.0938L148.618 27.0215L148.665 26.9343V26.9278H150.391L150.635 26.4716L150.627 26.4675Z" fill="#B9B9B9"/>
<path d="M151.045 26.4675L150.926 26.687L150.778 26.959L150.007 28.3816L150.002 28.3899L149.88 28.6159H151.164L151.623 27.771L152.331 26.4675H151.045Z" fill="#B9B9B9"/>
<path d="M155.896 26.4675H152.922L152.806 26.6796L152.021 28.1334C151.994 28.1834 151.98 28.2396 151.981 28.2965C151.982 28.3534 151.998 28.409 152.027 28.4579C152.055 28.5069 152.096 28.5475 152.145 28.5757C152.194 28.604 152.25 28.619 152.306 28.6192H156.563L156.719 28.3151L156.789 28.1943L155.584 28.1934H153.276L153.959 26.9368H156.437C156.514 26.9403 156.589 26.9596 156.659 26.9935C156.728 27.0274 156.789 27.0753 156.839 27.1341L156.848 27.1439L157.174 26.9368H157.179L157.19 26.9261L157.893 26.4782L155.896 26.4675Z" fill="#B9B9B9"/>
<path d="M162.415 27.6099L162.059 27.5466L159.29 27.0535L159.32 26.9968C159.333 26.9737 159.352 26.9544 159.374 26.9409C159.397 26.9275 159.423 26.9204 159.449 26.9204H161.816C161.898 26.9205 161.98 26.9385 162.054 26.9733C162.129 27.0081 162.196 27.0587 162.249 27.1217L162.257 27.1308L163.291 26.4675H158.313L158.198 26.6796L158.042 26.9664L157.931 27.1686L157.922 27.1891C157.914 27.2115 157.911 27.2353 157.913 27.259C157.915 27.2826 157.922 27.3056 157.933 27.3264C157.945 27.3469 157.96 27.3648 157.979 27.3789C157.998 27.393 158.019 27.4031 158.042 27.4086L161.143 28.0208L161.108 28.0792C161.096 28.1026 161.077 28.1222 161.054 28.1358C161.032 28.1494 161.006 28.1565 160.979 28.1565H158.331C158.249 28.1563 158.167 28.1383 158.093 28.1035C158.018 28.0688 157.951 28.0181 157.898 27.9551L157.158 28.6126H162.101L162.523 27.8458C162.533 27.8266 162.539 27.8056 162.541 27.784C162.543 27.7625 162.541 27.7408 162.534 27.7202C162.527 27.6995 162.517 27.6804 162.503 27.6639C162.489 27.6474 162.472 27.6338 162.453 27.6239C162.441 27.618 162.428 27.6133 162.415 27.6099Z" fill="#B9B9B9"/>
<path d="M103.185 38.4395L96.8521 34.7658L88.3789 34.0376L86.8153 31.1323L77.8745 29.3325L79.6299 26.0754H76.7573L73.999 31.1521L85.1554 33.3982L86.7957 36.4481L96.0752 37.33L104.074 42.1223L112.568 26.4675H109.678L103.185 38.4395Z" fill="#B9B9B9"/>
<path d="M158.891 3.68666L165.224 7.3612L173.697 8.08854L175.26 10.9946L184.201 12.7937L182.446 16.0507H185.319L188.077 10.9741L176.921 8.72877L175.28 5.67803L166 4.79699L158.002 0.00390625L149.508 15.6587H152.398L158.891 3.68666Z" fill="#B9B9B9"/>
<path d="M112.141 18.5813L110.253 22.0528C110.031 22.4611 109.704 22.8018 109.307 23.0391C108.909 23.2763 108.455 23.4015 107.993 23.4015H98.9766L98.624 22.9716L99.4205 21.5046L99.9771 20.4773L100.272 19.9316C100.493 19.522 100.82 19.18 101.218 18.9416C101.616 18.7033 102.07 18.5774 102.533 18.5771L112.141 18.5813ZM108.698 19.6086H103.334L101.826 22.3758H107.194L107.665 21.5063L108.223 20.4789L108.698 19.6086Z" fill="#B9B9B9"/>
<path d="M150.803 18.5771L148.914 22.0528C148.692 22.4613 148.365 22.8021 147.967 23.0395C147.57 23.2769 147.116 23.4022 146.653 23.4023H137.638L137.287 22.9725L138.082 21.5046L138.64 20.4781L138.933 19.9324C139.155 19.5227 139.482 19.1806 139.88 18.9421C140.278 18.7036 140.732 18.5776 141.196 18.5771H150.803ZM147.363 19.6069H141.996L140.492 22.3741H145.859L146.331 21.5038L146.888 20.4773L147.363 19.6069Z" fill="#B9B9B9"/>
<path d="M125.644 26.0765L127.094 23.4038L124.208 23.4046V23.4038L123.995 23.795H77.9781L76.7319 26.0765H79.2968H79.6077H80.108" fill="#B9B9B9"/>
<path d="M180.393 16.0493H136.434L135.068 18.5815H137.96L138.173 18.1886H184.185L185.319 16.0493H180.393Z" fill="#B9B9B9"/>
<path d="M83.6609 18.5813L83.3826 19.095L81.3212 22.8952L81.3204 22.8961L81.0454 23.4032H83.9261L84.9576 21.5063L86.5473 18.5813H83.6609Z" fill="#B9B9B9"/>
<path d="M99.2449 18.7336C99.2217 18.6872 99.1861 18.6482 99.1422 18.6209C99.0982 18.5936 99.0477 18.5792 98.996 18.5791H88.3611L85.7432 23.401H88.6247L89.1837 22.3712L89.6513 21.5082L90.2136 20.4727L90.4282 20.0765L90.5685 19.8168V19.8102L90.682 19.6015H95.9635C95.9726 19.6016 95.9815 19.6042 95.9893 19.609C95.997 19.6137 96.0034 19.6205 96.0076 19.6286C96.0124 19.6371 96.0149 19.6468 96.0149 19.6566C96.0149 19.6664 96.0124 19.676 96.0076 19.6845L95.8281 20.0132L95.5784 20.4735L91.2263 20.4677L90.247 21.5025H92.829L95.0324 23.3927H97.9131L96.1178 21.8509L98.3383 20.7143L99.2449 19.0443C99.268 18.9958 99.2799 18.9427 99.2799 18.8889C99.2799 18.8352 99.268 18.7821 99.2449 18.7336Z" fill="#B9B9B9"/>
<path d="M122.176 18.5813L120.475 21.7167L116.836 18.5928L116.823 18.5813H113.956L113.697 19.058L111.615 22.8961L111.34 23.4032H114.22L115.918 20.2809L119.56 23.4032H122.44L125.062 18.5813H122.176Z" fill="#B9B9B9"/>
<path d="M153.329 22.3717L153.797 21.5095L154.359 20.4732L154.574 20.0779L154.715 19.8173V19.8099L154.821 19.6152L155.384 18.5771H152.504L149.893 23.4015H159.394C159.807 23.4015 160.214 23.3091 160.587 23.131C160.96 22.9529 161.289 22.6935 161.55 22.3717H153.329Z" fill="#B9B9B9"/>
<path d="M171.667 18.5774H164.673L162.062 23.3993H164.96L165.991 21.5016H170.436L171.502 20.4751C171.391 20.4751 170.133 20.48 168.592 20.4751H166.541L167.015 19.6023H172.564C172.738 19.615 172.907 19.6626 173.063 19.7423C173.218 19.8221 173.356 19.9324 173.468 20.0666H176.389L177.193 18.575L171.667 18.5774Z" fill="#B9B9B9"/>
<path d="M135.068 18.5833L134.81 19.0591L134.809 19.0608L134.191 20.2007L134.19 20.1999L133.659 21.177L132.612 19.0065H131.769L128.198 21.3702L129.433 19.0912L129.708 18.5841H126.827L126.57 19.0591L126.568 19.0624L124.212 23.4051H127.787L131.437 21.1417L132.448 23.4051H135.334L137.674 19.0903L137.949 18.5833H135.068Z" fill="#B9B9B9"/>
</g>
<defs>
<clipPath id="clip0_29_993">
<rect width="114.483" height="41.9709" fill="white" transform="translate(74)"/>
</clipPath>
</defs>
</svg>
