<svg width="141" height="28" viewBox="0 0 141 28" fill="none" xmlns="http://www.w3.org/2000/svg">
<path d="M138.316 24.8462L140.612 26.9085H133.376V2.5662L131.08 0.311218H138.316V24.8462Z" fill="white"/>
<path d="M119.266 16.2118L114.347 5.53431L108.874 16.2118H119.266ZM100.859 27.0241L114.552 0.311218H117.319L129.618 27.0241H124.247L120.23 18.2933H107.808L103.34 27.0241H100.859Z" fill="white"/>
<path d="M96.2952 2.27391L96.2132 26.9053H91.2937L91.3552 2.27391H84.5294V0.192383H103.141V2.27391H96.2952Z" fill="white"/>
<path fill-rule="evenodd" clip-rule="evenodd" d="M84.5121 13.6455C84.5121 6.10962 78.1987 2.06879e-05 70.225 0C64.9981 0 60.4885 2.56341 57.8648 6.76501C56.5735 8.82723 55.938 11.1207 55.938 13.6455C55.938 21.1621 62.2719 27.2911 70.225 27.2911C75.4315 27.2911 79.9616 24.7085 82.5853 20.507C83.8767 18.4447 84.5121 16.1703 84.5121 13.6455ZM66.3972 24.1935C70.8351 26.7557 75.3999 24.3838 77.6452 20.4947C78.6378 18.7755 79.2058 16.7667 79.3687 14.4349C79.5229 10.2733 77.9622 5.43311 73.9504 3.11685C69.4947 0.544365 64.9573 2.90985 62.7024 6.8156C61.7098 8.53479 61.1417 10.5436 60.9789 12.8754C60.8166 17.0101 62.4208 21.8977 66.3972 24.1935Z" fill="white"/>
<path d="M56.0623 26.9085L36.3433 26.9278V0.311218H41.2833V24.827H56.0623V26.9085Z" fill="white"/>
<path d="M29.6993 24.8462L31.995 26.9085H24.7593V2.5662L22.4635 0.311218H29.6993V24.8462Z" fill="white"/>
<path d="M4.91952 2.21963V13.6102H8.58864C11.9913 13.6102 14.6765 11.1818 14.7995 7.98238V7.84746C14.6765 4.62881 12.0118 2.21963 8.58864 2.21963H4.91952ZM8.62964 15.711H4.91952V26.9281H2.28882e-05V0.118835H8.62964C11.5608 0.118835 14.1846 0.909043 16.1729 2.21963C18.3661 3.66514 19.6985 5.66957 19.6985 7.92456C19.6985 10.1603 18.3661 12.1647 16.1729 13.6102C14.1846 14.9208 11.5608 15.711 8.62964 15.711Z" fill="white"/>
</svg>
