<svg width="141" height="28" viewBox="0 0 141 28" fill="none" xmlns="http://www.w3.org/2000/svg">
<path d="M138.316 24.8462L140.612 26.9085H133.376V2.5662L131.08 0.311218H138.316V24.8462Z" fill="white"/>
<path d="M119.266 16.2118L114.347 5.53431L108.874 16.2118H119.266ZM100.859 27.0241L114.552 0.311218H117.319L129.618 27.0241H124.247L120.23 18.2933H107.808L103.34 27.0241H100.859Z" fill="white"/>
<path d="M96.2951 2.27391L96.2131 26.9053H91.2936L91.3551 2.27391H84.5293V0.192383H103.141V2.27391H96.2951Z" fill="white"/>
<path fill-rule="evenodd" clip-rule="evenodd" d="M84.5116 13.6455C84.5116 6.10962 78.1982 2.06879e-05 70.2246 0C64.9976 0 60.488 2.56341 57.8643 6.76501C56.573 8.82723 55.9375 11.1207 55.9375 13.6455C55.9375 21.1621 62.2714 27.2911 70.2246 27.2911C75.431 27.2911 79.9611 24.7085 82.5848 20.507C83.8762 18.4447 84.5116 16.1703 84.5116 13.6455ZM66.3967 24.1935C70.8347 26.7557 75.3994 24.3838 77.6447 20.4947C78.6373 18.7755 79.2054 16.7667 79.3682 14.4349C79.5224 10.2733 77.9618 5.43311 73.9499 3.11685C69.4942 0.544365 64.9569 2.90985 62.7019 6.8156C61.7093 8.53479 61.1412 10.5436 60.9784 12.8754C60.8161 17.0101 62.4203 21.8977 66.3967 24.1935Z" fill="white"/>
<path d="M56.0627 26.9085L36.3438 26.9278V0.311218H41.2837V24.827H56.0627V26.9085Z" fill="white"/>
<path d="M29.6996 24.8462L31.9954 26.9085H24.7596V2.5662L22.4639 0.311218H29.6996V24.8462Z" fill="white"/>
<path d="M4.9195 2.21963V13.6102H8.58862C11.9913 13.6102 14.6765 11.1818 14.7995 7.98238V7.84746C14.6765 4.62881 12.0118 2.21963 8.58862 2.21963H4.9195ZM8.62962 15.711H4.9195V26.9281H0V0.118835H8.62962C11.5608 0.118835 14.1845 0.909043 16.1728 2.21963C18.3661 3.66514 19.6985 5.66957 19.6985 7.92456C19.6985 10.1603 18.3661 12.1647 16.1728 13.6102C14.1845 14.9208 11.5608 15.711 8.62962 15.711Z" fill="white"/>
</svg>
