<svg width="119" height="39" viewBox="0 0 119 39" fill="none" xmlns="http://www.w3.org/2000/svg">
<g clip-path="url(#clip0_1_194)">
<path d="M14.9662 3.30004C13.8698 2.38045 12.6438 1.69299 11.2821 1.23766C9.92051 0.782329 8.56476 0.556152 7.21491 0.556152H0V22.5042H7.21491C8.56476 22.5042 9.92051 22.2781 11.2821 21.8227C12.6438 21.3674 13.8698 20.6799 14.9662 19.7604C16.0597 18.8408 16.9468 17.698 17.6217 16.335C18.2966 14.972 18.6356 13.3709 18.6356 11.5317C18.6356 9.69251 18.2966 8.1182 17.6217 6.74328C16.9468 5.36836 16.0597 4.2226 14.9662 3.30301V3.30004ZM15.6559 14.8321C15.2669 15.8975 14.6686 16.8468 13.861 17.6831C13.0535 18.5194 12.0396 19.1919 10.8224 19.6979C9.60515 20.2038 8.16688 20.4567 6.51052 20.4567H2.21045V2.60365H6.50757C8.16393 2.60365 9.6022 2.85661 10.8194 3.36253C12.0366 3.86845 13.0505 4.54103 13.8581 5.37729C14.6656 6.21355 15.2639 7.16587 15.6529 8.22831C16.042 9.29372 16.2365 10.3919 16.2365 11.5287C16.2365 12.6655 16.042 13.7667 15.6529 14.8291L15.6559 14.8321Z" fill="white"/>
<path d="M40.9994 3.27113C39.9856 2.24738 38.789 1.44683 37.4067 0.869484C36.0245 0.292137 34.5272 0.000488281 32.9092 0.000488281C31.2911 0.000488281 29.7939 0.289161 28.4117 0.869484C27.0294 1.44981 25.8328 2.25035 24.8189 3.27113C23.8051 4.29487 23.0123 5.50909 22.4405 6.91376C21.8687 8.31844 21.5799 9.86002 21.5799 11.5325C21.5799 13.2051 21.8658 14.7466 22.4405 16.1513C23.0123 17.556 23.808 18.7702 24.8189 19.7939C25.8328 20.8177 27.0294 21.6182 28.4117 22.1956C29.7939 22.7729 31.2911 23.0646 32.9092 23.0646C34.5272 23.0646 36.0245 22.7759 37.4067 22.1956C38.789 21.6153 39.9856 20.8147 40.9994 19.7939C42.0133 18.7702 42.8061 17.556 43.3779 16.1513C43.9497 14.7466 44.2385 13.2051 44.2385 11.5325C44.2385 9.86002 43.9526 8.31844 43.3779 6.91376C42.8061 5.50909 42.0133 4.29487 40.9994 3.27113ZM41.2293 15.1424C40.8197 16.2882 40.2332 17.2971 39.4639 18.1661C38.6976 19.0351 37.7604 19.7255 36.6552 20.2433C35.5499 20.7611 34.3003 21.0171 32.9092 21.0171C31.5181 21.0171 30.2684 20.7582 29.1632 20.2433C28.058 19.7285 27.1208 19.0351 26.3545 18.1661C25.5882 17.2971 24.9987 16.2912 24.5891 15.1424C24.1794 13.9967 23.976 12.7914 23.976 11.5325C23.976 10.2737 24.1794 9.0684 24.5891 7.92263C24.9987 6.77687 25.5882 5.768 26.3545 4.899C27.1208 4.03001 28.058 3.33957 29.1632 2.82175C30.2684 2.3069 31.5151 2.04798 32.9092 2.04798C34.3033 2.04798 35.5499 2.3069 36.6552 2.82175C37.7604 3.33957 38.6976 4.03001 39.4639 4.899C40.2302 5.768 40.8197 6.77389 41.2293 7.92263C41.639 9.0684 41.8424 10.2737 41.8424 11.5325C41.8424 12.7914 41.639 13.9967 41.2293 15.1424Z" fill="white"/>
<path d="M59.3727 18.4122L52.034 0.556152H48.6565V22.5042H50.8669V3.53216H50.9288L58.7892 22.5042H59.9533L67.8137 3.53216H67.8756V22.5042H70.0861V0.556152H66.7085L59.3727 18.4122Z" fill="white"/>
<path d="M82.3644 19.1562H82.3025L75.397 0.556152H72.939L81.1972 22.5042H83.4077L91.8811 0.556152H89.4879L82.3644 19.1562Z" fill="white"/>
<path d="M96.9475 0.556152H94.737V22.5042H96.9475V0.556152Z" fill="white"/>
<path d="M116.273 22.5042H118.483V11.984H118.486L109.338 0.556152L100.189 11.984V22.5042H102.406V11.984L109.335 3.99047L116.273 11.984V22.5042Z" fill="white"/>
<path d="M112.77 16.9306C113.572 16.7992 114.116 16.0363 113.986 15.2268C113.856 14.4172 113.1 13.8675 112.299 13.9989C111.497 14.1303 110.952 14.8931 111.083 15.7027C111.213 16.5122 111.968 17.062 112.77 16.9306Z" fill="white"/>
<path d="M2.26646 36.568C2.38435 36.5323 2.49045 36.4758 2.58476 36.3984C2.68202 36.324 2.7616 36.2258 2.82644 36.1038C2.89128 35.9818 2.92075 35.827 2.92075 35.6395C2.92075 35.4699 2.89423 35.327 2.83823 35.208C2.78223 35.089 2.71444 34.9937 2.63192 34.9163C2.5494 34.839 2.45214 34.7794 2.34898 34.7408C2.24288 34.6991 2.13973 34.6693 2.03657 34.6515C1.93342 34.6336 1.8391 34.6217 1.75363 34.6187C1.66522 34.6158 1.59743 34.6128 1.54438 34.6128H0.530518V38.5173H0.890084V36.6633H1.56206L2.6496 38.5173H3.05927L1.93342 36.6424C2.03952 36.6276 2.15152 36.6008 2.26646 36.5651V36.568ZM0.890084 36.3359V34.9461H1.65637C1.845 34.9461 2.0012 34.9699 2.1191 35.0175C2.23699 35.0651 2.32835 35.1247 2.39614 35.1931C2.46098 35.2645 2.50519 35.3389 2.52877 35.4193C2.55234 35.4996 2.56413 35.574 2.56413 35.6395C2.56413 35.705 2.55234 35.7794 2.52877 35.8597C2.50519 35.9401 2.46098 36.0175 2.39614 36.0859C2.3313 36.1544 2.23699 36.2139 2.1191 36.2615C2.0012 36.3091 1.84795 36.3329 1.65637 36.3329H0.890084V36.3359Z" fill="white"/>
<path d="M24.0821 36.6662H25.9625V36.3359H24.0821V34.9461H26.0892V34.6157H23.7226V38.5202H26.1747V38.1899H24.0821V36.6662Z" fill="white"/>
<path d="M48.0994 34.6157L46.4106 38.5202H46.7879L47.2241 37.4816H49.2724L49.6939 38.5202H50.0977L48.4708 34.6157H48.0994ZM47.3685 37.1513L48.2704 35.0115L49.1457 37.1513H47.3715H47.3685Z" fill="white"/>
<path d="M70.9703 34.6157H70.6107V38.5202H72.774V38.1899H70.9703V34.6157Z" fill="white"/>
<path d="M92.3261 34.9461H93.6495V38.5202H94.009V34.9461H95.3324V34.6157H92.3261V34.9461Z" fill="white"/>
<path d="M118.112 34.6157L116.915 36.4668L115.748 34.6157H115.315L116.735 36.8388V38.5202H117.098V36.8388L118.519 34.6157H118.112Z" fill="white"/>
</g>
<defs>
<clipPath id="clip0_1_194">
<rect width="118.519" height="38.5185" fill="white"/>
</clipPath>
</defs>
</svg>
