<svg width="119" height="39" viewBox="0 0 119 39" fill="none" xmlns="http://www.w3.org/2000/svg">
<g clip-path="url(#clip0_29_1294)">
<path d="M14.9662 3.30004C13.8698 2.38045 12.6438 1.69299 11.2821 1.23766C9.92051 0.782329 8.56476 0.556152 7.21491 0.556152H0V22.5042H7.21491C8.56476 22.5042 9.92051 22.2781 11.2821 21.8227C12.6438 21.3674 13.8698 20.6799 14.9662 19.7604C16.0597 18.8408 16.9468 17.698 17.6217 16.335C18.2966 14.972 18.6356 13.3709 18.6356 11.5317C18.6356 9.69251 18.2966 8.1182 17.6217 6.74328C16.9468 5.36836 16.0597 4.2226 14.9662 3.30301V3.30004ZM15.6559 14.8321C15.2669 15.8975 14.6686 16.8468 13.861 17.6831C13.0535 18.5194 12.0396 19.1919 10.8224 19.6979C9.60515 20.2038 8.16688 20.4567 6.51052 20.4567H2.21045V2.60365H6.50757C8.16393 2.60365 9.6022 2.85661 10.8194 3.36253C12.0366 3.86845 13.0505 4.54103 13.8581 5.37729C14.6656 6.21355 15.2639 7.16587 15.6529 8.22831C16.042 9.29372 16.2365 10.3919 16.2365 11.5287C16.2365 12.6655 16.042 13.7667 15.6529 14.8291L15.6559 14.8321Z" fill="white"/>
<path d="M40.9996 3.27113C39.9858 2.24738 38.7892 1.44683 37.4069 0.869484C36.0246 0.292137 34.5274 0.000488281 32.9094 0.000488281C31.2913 0.000488281 29.7941 0.289161 28.4118 0.869484C27.0296 1.44981 25.833 2.25035 24.8191 3.27113C23.8053 4.29487 23.0125 5.50909 22.4407 6.91376C21.8689 8.31844 21.5801 9.86002 21.5801 11.5325C21.5801 13.2051 21.866 14.7466 22.4407 16.1513C23.0125 17.556 23.8082 18.7702 24.8191 19.7939C25.833 20.8177 27.0296 21.6182 28.4118 22.1956C29.7941 22.7729 31.2913 23.0646 32.9094 23.0646C34.5274 23.0646 36.0246 22.7759 37.4069 22.1956C38.7892 21.6153 39.9858 20.8147 40.9996 19.7939C42.0135 18.7702 42.8063 17.556 43.3781 16.1513C43.9498 14.7466 44.2387 13.2051 44.2387 11.5325C44.2387 9.86002 43.9528 8.31844 43.3781 6.91376C42.8063 5.50909 42.0135 4.29487 40.9996 3.27113ZM41.2295 15.1424C40.8198 16.2882 40.2333 17.2971 39.4641 18.1661C38.6978 19.0351 37.7606 19.7255 36.6554 20.2433C35.5501 20.7611 34.3005 21.0171 32.9094 21.0171C31.5183 21.0171 30.2686 20.7582 29.1634 20.2433C28.0582 19.7285 27.1209 19.0351 26.3547 18.1661C25.5884 17.2971 24.9989 16.2912 24.5892 15.1424C24.1796 13.9967 23.9762 12.7914 23.9762 11.5325C23.9762 10.2737 24.1796 9.0684 24.5892 7.92263C24.9989 6.77687 25.5884 5.768 26.3547 4.899C27.1209 4.03001 28.0582 3.33957 29.1634 2.82175C30.2686 2.3069 31.5153 2.04798 32.9094 2.04798C34.3034 2.04798 35.5501 2.3069 36.6554 2.82175C37.7606 3.33957 38.6978 4.03001 39.4641 4.899C40.2304 5.768 40.8198 6.77389 41.2295 7.92263C41.6392 9.0684 41.8426 10.2737 41.8426 11.5325C41.8426 12.7914 41.6392 13.9967 41.2295 15.1424Z" fill="white"/>
<path d="M59.3725 18.4122L52.0338 0.556152H48.6562V22.5042H50.8667V3.53216H50.9286L58.789 22.5042H59.9531L67.8135 3.53216H67.8754V22.5042H70.0858V0.556152H66.7083L59.3725 18.4122Z" fill="white"/>
<path d="M82.3648 19.1562H82.3029L75.3975 0.556152H72.9395L81.1977 22.5042H83.4082L91.8815 0.556152H89.4884L82.3648 19.1562Z" fill="white"/>
<path d="M96.9478 0.556152H94.7373V22.5042H96.9478V0.556152Z" fill="white"/>
<path d="M116.273 22.5042H118.483V11.984H118.486L109.338 0.556152L100.189 11.984V22.5042H102.406V11.984L109.335 3.99047L116.273 11.984V22.5042Z" fill="white"/>
<path d="M112.77 16.9306C113.571 16.7992 114.116 16.0363 113.986 15.2268C113.856 14.4172 113.1 13.8675 112.298 13.9989C111.497 14.1303 110.952 14.8931 111.082 15.7027C111.212 16.5122 111.968 17.062 112.77 16.9306Z" fill="white"/>
<path d="M2.26621 36.568C2.38411 36.5323 2.49021 36.4758 2.58452 36.3984C2.68178 36.324 2.76136 36.2258 2.8262 36.1038C2.89104 35.9818 2.92051 35.827 2.92051 35.6395C2.92051 35.4699 2.89398 35.327 2.83798 35.208C2.78199 35.089 2.7142 34.9937 2.63168 34.9163C2.54915 34.839 2.45189 34.7794 2.34874 34.7408C2.24264 34.6991 2.13948 34.6693 2.03633 34.6515C1.93317 34.6336 1.83886 34.6217 1.75339 34.6187C1.66497 34.6158 1.59718 34.6128 1.54413 34.6128H0.530273V38.5173H0.88984V36.6633H1.56182L2.64936 38.5173H3.05903L1.93317 36.6424C2.03927 36.6276 2.15127 36.6008 2.26621 36.5651V36.568ZM0.88984 36.3359V34.9461H1.65613C1.84476 34.9461 2.00096 34.9699 2.11885 35.0175C2.23674 35.0651 2.32811 35.1247 2.39589 35.1931C2.46073 35.2645 2.50494 35.3389 2.52852 35.4193C2.5521 35.4996 2.56389 35.574 2.56389 35.6395C2.56389 35.705 2.5521 35.7794 2.52852 35.8597C2.50494 35.9401 2.46073 36.0175 2.39589 36.0859C2.33105 36.1544 2.23674 36.2139 2.11885 36.2615C2.00096 36.3091 1.8477 36.3329 1.65613 36.3329H0.88984V36.3359Z" fill="white"/>
<path d="M24.0822 36.6662H25.9626V36.3359H24.0822V34.9461H26.0893V34.6157H23.7227V38.5202H26.1748V38.1899H24.0822V36.6662Z" fill="white"/>
<path d="M48.0989 34.6157L46.4102 38.5202H46.7874L47.2236 37.4816H49.272L49.6934 38.5202H50.0972L48.4703 34.6157H48.0989ZM47.368 37.1513L48.2699 35.0115L49.1452 37.1513H47.371H47.368Z" fill="white"/>
<path d="M70.9699 34.6157H70.6104V38.5202H72.7736V38.1899H70.9699V34.6157Z" fill="white"/>
<path d="M92.3262 34.9461H93.6495V38.5202H94.0091V34.9461H95.3324V34.6157H92.3262V34.9461Z" fill="white"/>
<path d="M118.111 34.6157L116.915 36.4668L115.748 34.6157H115.314L116.735 36.8388V38.5202H117.098V36.8388L118.518 34.6157H118.111Z" fill="white"/>
</g>
<defs>
<clipPath id="clip0_29_1294">
<rect width="118.519" height="38.5185" fill="white"/>
</clipPath>
</defs>
</svg>
