<svg width="86" height="152" viewBox="0 0 86 152" fill="none" xmlns="http://www.w3.org/2000/svg">
<path fill-rule="evenodd" clip-rule="evenodd" d="M7.03601 35.8848C14.6277 47.1745 27.8816 54.6707 43.1161 54.6707C58.0775 54.6706 71.1772 47.5618 79.1721 35.8848H64.3884C57.3627 46.5808 44.3248 52.7056 31.6325 45.3778C27.5169 43.0016 24.2483 39.6999 21.7522 35.8848H7.03601Z" fill="#171717"/>
<path d="M61.4014 18.9459C51.2538 18.9459 43.105 27.428 43.105 37.8126C43.105 27.3487 34.8793 18.9459 24.8086 18.9459C34.9562 18.9459 43.105 10.4639 43.105 6.10352e-05C43.105 10.4639 51.2538 18.9459 61.4014 18.9459Z" fill="#CC6E36"/>
<path fill-rule="evenodd" clip-rule="evenodd" d="M85.7224 110.307C85.7223 87.7 66.7821 69.3712 42.8612 69.3711C27.1803 69.3711 13.6516 77.0613 5.78047 89.6661C1.90643 95.8528 5.6076e-05 102.733 0 110.307C0 132.857 19.0017 151.244 42.8612 151.244C58.4805 151.244 72.0708 143.497 79.942 130.892C83.8161 124.705 85.7224 117.882 85.7224 110.307ZM31.3777 141.952C44.6915 149.638 58.3857 142.522 65.1217 130.855C68.0994 125.698 69.8036 119.671 70.2921 112.676C70.7547 100.191 66.0728 85.6704 54.0371 78.7216C40.6701 71.0042 27.0581 78.1006 20.2931 89.8179C17.3154 94.9755 15.6112 101.002 15.1228 107.997C14.6358 120.401 19.4485 135.064 31.3777 141.952Z" fill="#171717"/>
</svg>
