<svg width="141" height="64" viewBox="0 0 141 64" fill="none" xmlns="http://www.w3.org/2000/svg">
<path fill-rule="evenodd" clip-rule="evenodd" d="M58.2832 11.9617C60.8138 15.7249 65.2317 18.2236 70.3099 18.2236C75.297 18.2236 79.6636 15.854 82.3286 11.9617H77.4007C75.0588 15.527 70.7128 17.5686 66.482 15.126C65.1102 14.3339 64.0206 13.2334 63.1886 11.9617H58.2832Z" fill="#191919"/>
<path d="M76.4056 6.31529C73.0231 6.31529 70.3068 9.14264 70.3068 12.6042C70.3068 9.11622 67.5649 6.31529 64.208 6.31529C67.5905 6.31529 70.3068 3.48794 70.3068 0C70.3068 3.48794 73.0231 6.31529 76.4056 6.31529Z" fill="#CC6E36"/>
<path d="M138.316 47.97L140.612 50.0323H133.376V25.69L131.08 23.435H138.316V47.97Z" fill="#191919"/>
<path d="M119.266 39.3356L114.347 28.6581L108.874 39.3356H119.266ZM100.859 50.1479L114.552 23.435H117.319L129.618 50.1479H124.247L120.23 41.4171H107.808L103.34 50.1479H100.859Z" fill="#191919"/>
<path d="M96.2951 25.3977L96.2131 50.0291H91.2936L91.3551 25.3977H84.5293V23.3162H103.141V25.3977H96.2951Z" fill="#191919"/>
<path fill-rule="evenodd" clip-rule="evenodd" d="M84.5116 36.7693C84.5116 29.2334 78.1982 23.1238 70.2246 23.1238C64.9976 23.1238 60.488 25.6872 57.8643 29.8888C56.573 31.951 55.9375 34.2445 55.9375 36.7693C55.9375 44.2859 62.2714 50.4149 70.2246 50.4149C75.431 50.4149 79.9611 47.8323 82.5848 43.6308C83.8762 41.5685 84.5116 39.2941 84.5116 36.7693ZM66.3967 47.3173C70.8347 49.8795 75.3994 47.5076 77.6447 43.6185C78.6373 41.8993 79.2054 39.8905 79.3682 37.5587C79.5224 33.3971 77.9618 28.5569 73.9499 26.2406C69.4942 23.6682 64.9569 26.0336 62.7019 29.9394C61.7093 31.6586 61.1412 33.6674 60.9784 35.9992C60.8161 40.1339 62.4203 45.0215 66.3967 47.3173Z" fill="#191919"/>
<path d="M56.0627 50.0323L36.3438 50.0516V23.435H41.2837V47.9508H56.0627V50.0323Z" fill="#191919"/>
<path d="M29.6996 47.97L31.9954 50.0323H24.7596V25.69L22.4639 23.435H29.6996V47.97Z" fill="#191919"/>
<path d="M4.9195 25.3434V36.734H8.58862C11.9913 36.734 14.6765 34.3056 14.7995 31.1062V30.9713C14.6765 27.7526 12.0118 25.3434 8.58862 25.3434H4.9195ZM8.62962 38.8348H4.9195V50.0519H0V23.2426H8.62962C11.5608 23.2426 14.1845 24.0328 16.1728 25.3434C18.3661 26.7889 19.6985 28.7934 19.6985 31.0484C19.6985 33.2841 18.3661 35.2885 16.1728 36.734C14.1845 38.0446 11.5608 38.8348 8.62962 38.8348Z" fill="#191919"/>
<path d="M103.42 63.7397H102.927L100.895 59.0687V63.7323H100.498V58.6755L101.685 58.6682L103.46 62.7474L105.434 58.6608H106.543V63.7323H105.658V59.1128L103.42 63.7397Z" fill="#191919"/>
<path d="M91.269 61.6927H93.1322L92.2502 59.6567L91.269 61.6927ZM92.783 58.6608L94.9881 63.7544H94.0252L93.3049 62.0896H91.0779L90.2767 63.7544H89.832L92.2869 58.6608H92.783Z" fill="#191919"/>
<path d="M84.3135 63.7523H83.2477L81.741 61.573H81.0942L81.0868 63.7523H80.2012L80.2122 58.5816H81.7594C82.024 58.5816 82.2702 58.6171 82.498 58.6882C82.7283 58.7568 82.9329 58.8535 83.1118 58.9785C83.3102 59.1181 83.4646 59.2811 83.5748 59.4673C83.6875 59.651 83.7439 59.8507 83.7439 60.0663C83.7439 60.2231 83.7145 60.3701 83.6557 60.5073C83.5993 60.642 83.5221 60.7645 83.4241 60.8748C83.3286 60.985 83.2171 61.0818 83.0897 61.1651C82.9648 61.2484 82.8325 61.3182 82.6928 61.3746L84.3135 63.7523ZM81.752 61.1541C81.9039 61.1541 82.046 61.1271 82.1783 61.0732C82.3131 61.0169 82.4307 60.9409 82.5311 60.8454C82.6316 60.7498 82.7112 60.6371 82.77 60.5073C82.8312 60.375 82.8643 60.2329 82.8692 60.081V60.0553C82.8643 59.9034 82.8312 59.7625 82.77 59.6326C82.7112 59.5003 82.6316 59.3864 82.5311 59.2909C82.4331 59.1929 82.318 59.1169 82.1857 59.063C82.0534 59.0067 81.91 58.9785 81.7557 58.9785H81.0942V61.1541H81.752Z" fill="#191919"/>
<path d="M70.4295 63.7501C70.1821 63.7501 69.9395 63.7231 69.7019 63.6692C69.4642 63.6129 69.2376 63.532 69.022 63.4267C68.8088 63.3189 68.6104 63.1866 68.4266 63.0298C68.2453 62.8705 68.0849 62.6868 67.9452 62.4785C67.6855 62.0939 67.5557 61.6664 67.5557 61.196C67.5557 60.9534 67.59 60.7231 67.6586 60.5051C67.7296 60.2846 67.8276 60.08 67.9526 59.8914C68.08 59.7027 68.2306 59.5324 68.4046 59.3805C68.581 59.2262 68.7745 59.0939 68.9852 58.9836C69.4164 58.7533 69.8979 58.6382 70.4295 58.6382C70.7823 58.6382 71.1143 58.6909 71.4254 58.7962C71.739 58.8991 72.022 59.0461 72.2744 59.2372V60.3618C72.2009 60.1633 72.1041 59.9796 71.984 59.8105C71.8664 59.639 71.728 59.492 71.5688 59.3695C71.412 59.247 71.2368 59.1515 71.0432 59.0829C70.8521 59.0118 70.6476 58.9763 70.4295 58.9763C70.2409 58.9763 70.062 59.0032 69.893 59.0571C69.7239 59.1086 69.5659 59.1821 69.4189 59.2776C69.2743 59.3732 69.142 59.4883 69.022 59.6231C68.9019 59.7554 68.7978 59.9024 68.7096 60.0641C68.5308 60.3973 68.4413 60.7648 68.4413 61.1666C68.4413 61.4483 68.4891 61.7215 68.5847 61.9861C68.6827 62.2482 68.8186 62.4822 68.9926 62.688C69.169 62.8914 69.3785 63.0543 69.621 63.1768C69.866 63.2993 70.1355 63.3605 70.4295 63.3605C70.7799 63.3605 71.0996 63.2687 71.3887 63.0849V61.9677H70.8411L70.4295 61.5671H73.2335L72.8219 61.9677H72.2744V63.1511C72.0098 63.3471 71.7182 63.4965 71.3997 63.5994C71.0812 63.6999 70.7578 63.7501 70.4295 63.7501Z" fill="#191919"/>
<path d="M57.9228 63.8024C57.69 63.8024 57.4659 63.773 57.2503 63.7142C57.0347 63.6529 56.8313 63.5672 56.6402 63.4569C56.4516 63.3442 56.2776 63.2082 56.1184 63.049C55.9616 62.8897 55.8244 62.7097 55.7068 62.5088C55.4765 62.1168 55.3613 61.6807 55.3613 61.2005C55.3613 60.9604 55.3907 60.7301 55.4495 60.5096C55.5108 60.2866 55.5965 60.0796 55.7068 59.8885C55.817 59.6949 55.9493 59.5198 56.1037 59.363C56.2605 59.2037 56.4332 59.0677 56.6218 58.955C56.8129 58.8423 57.0175 58.7554 57.2356 58.6941C57.4561 58.6304 57.6851 58.5986 57.9228 58.5986C58.1555 58.5986 58.3797 58.628 58.5953 58.6868C58.8134 58.7456 59.0167 58.8313 59.2054 58.944C59.394 59.0543 59.5667 59.189 59.7235 59.3483C59.8828 59.5075 60.0212 59.6876 60.1388 59.8885C60.3691 60.2805 60.4843 60.7178 60.4843 61.2005C60.4843 61.4381 60.4536 61.6684 60.3924 61.8914C60.3336 62.1119 60.2478 62.3189 60.1351 62.5124C60.0249 62.706 59.8926 62.8824 59.7382 63.0416C59.5839 63.1984 59.4112 63.3332 59.2201 63.4459C59.0314 63.5586 58.8268 63.6468 58.6063 63.7105C58.3883 63.7717 58.1604 63.8024 57.9228 63.8024ZM58.2719 63.3026C58.5047 63.3026 58.7092 63.2548 58.8856 63.1592C59.062 63.0612 59.209 62.9338 59.3266 62.777C59.4467 62.6178 59.5361 62.4377 59.5949 62.2368C59.6562 62.0335 59.6868 61.8277 59.6868 61.6194C59.6868 61.4161 59.6611 61.2115 59.6096 61.0057C59.5582 60.7974 59.4847 60.599 59.3891 60.4103C59.2936 60.2192 59.1772 60.0428 59.04 59.8811C58.9053 59.717 58.7546 59.5761 58.588 59.4585C58.2523 59.2209 57.9081 59.102 57.5553 59.102C57.3201 59.102 57.1143 59.151 56.9379 59.249C56.7615 59.3446 56.6145 59.472 56.4969 59.6312C56.3793 59.788 56.2899 59.9669 56.2286 60.1678C56.1698 60.3687 56.1404 60.5745 56.1404 60.7852C56.1404 60.9885 56.1662 61.1931 56.2176 61.3989C56.2691 61.6047 56.3425 61.8032 56.4381 61.9943C56.5336 62.1829 56.6488 62.3593 56.7836 62.5235C56.9208 62.6852 57.0727 62.8248 57.2393 62.9424C57.5798 63.1825 57.924 63.3026 58.2719 63.3026Z" fill="#191919"/>
<path d="M48.9209 63.7523H47.8552L46.3484 61.573H45.7016L45.6943 63.7523H44.8086L44.8196 58.5816H46.3668C46.6314 58.5816 46.8776 58.6171 47.1055 58.6882C47.3358 58.7568 47.5403 58.8535 47.7192 58.9785C47.9176 59.1181 48.072 59.2811 48.1822 59.4673C48.2949 59.651 48.3513 59.8507 48.3513 60.0663C48.3513 60.2231 48.3219 60.3701 48.2631 60.5073C48.2067 60.642 48.1296 60.7645 48.0316 60.8748C47.936 60.985 47.8245 61.0818 47.6971 61.1651C47.5722 61.2484 47.4399 61.3182 47.3002 61.3746L48.9209 63.7523ZM46.3594 61.1541C46.5113 61.1541 46.6534 61.1271 46.7857 61.0732C46.9205 61.0169 47.0381 60.9409 47.1385 60.8454C47.239 60.7498 47.3186 60.6371 47.3774 60.5073C47.4387 60.375 47.4717 60.2329 47.4766 60.081V60.0553C47.4717 59.9034 47.4387 59.7625 47.3774 59.6326C47.3186 59.5003 47.239 59.3864 47.1385 59.2909C47.0405 59.1929 46.9254 59.1169 46.7931 59.063C46.6608 59.0067 46.5175 58.9785 46.3631 58.9785H45.7016V61.1541H46.3594Z" fill="#191919"/>
<path d="M34.9513 63.7331H34.0693V58.6212H35.6165C35.8811 58.6212 36.1273 58.6567 36.3552 58.7278C36.5855 58.7988 36.7901 58.8968 36.9689 59.0218C37.1674 59.1614 37.3217 59.3243 37.432 59.5105C37.5447 59.6943 37.601 59.894 37.601 60.1096C37.601 60.3252 37.5447 60.5248 37.432 60.7086C37.3217 60.8923 37.1674 61.054 36.9689 61.1937C36.7901 61.3186 36.5855 61.4166 36.3552 61.4877C36.1273 61.5587 35.8811 61.5943 35.6165 61.5943H34.9513V63.7331ZM35.6092 61.1937C35.7611 61.1937 35.9032 61.1667 36.0355 61.1128C36.1702 61.0565 36.2866 60.9805 36.3846 60.885C36.485 60.7894 36.5647 60.6767 36.6235 60.5469C36.6847 60.4146 36.7178 60.2725 36.7227 60.1206V60.0949C36.7178 59.9405 36.6847 59.7984 36.6235 59.6686C36.5647 59.5363 36.485 59.4223 36.3846 59.3268C36.2866 59.2312 36.1714 59.1565 36.0391 59.1026C35.9068 59.0487 35.7635 59.0218 35.6092 59.0218H34.9513V61.1937H35.6092Z" fill="#191919"/>
</svg>
