<svg width="141" height="64" viewBox="0 0 141 64" fill="none" xmlns="http://www.w3.org/2000/svg">
<path fill-rule="evenodd" clip-rule="evenodd" d="M58.2832 11.9617C60.8138 15.7249 65.2317 18.2236 70.3099 18.2236C75.297 18.2236 79.6636 15.854 82.3286 11.9617H77.4007C75.0588 15.527 70.7128 17.5686 66.482 15.126C65.1102 14.3339 64.0206 13.2334 63.1886 11.9617H58.2832Z" fill="white"/>
<path d="M76.4051 6.31529C73.0226 6.31529 70.3063 9.14264 70.3063 12.6042C70.3063 9.11622 67.5644 6.31529 64.2075 6.31529C67.59 6.31529 70.3063 3.48794 70.3063 0C70.3063 3.48794 73.0226 6.31529 76.4051 6.31529Z" fill="#CC6E36"/>
<path d="M138.316 47.97L140.612 50.0323H133.376V25.69L131.08 23.435H138.316V47.97Z" fill="white"/>
<path d="M119.266 39.3356L114.347 28.6581L108.874 39.3356H119.266ZM100.859 50.1479L114.552 23.435H117.319L129.618 50.1479H124.247L120.23 41.4171H107.808L103.34 50.1479H100.859Z" fill="white"/>
<path d="M96.2951 25.3977L96.2131 50.0291H91.2936L91.3551 25.3977H84.5293V23.3162H103.141V25.3977H96.2951Z" fill="white"/>
<path fill-rule="evenodd" clip-rule="evenodd" d="M84.5121 36.7692C84.5121 29.2334 78.1987 23.1238 70.2251 23.1238C64.9981 23.1238 60.4885 25.6872 57.8648 29.8888C56.5735 31.951 55.938 34.2445 55.938 36.7692C55.938 44.2859 62.2719 50.4149 70.2251 50.4149C75.4315 50.4149 79.9616 47.8323 82.5853 43.6308C83.8767 41.5685 84.5121 39.2941 84.5121 36.7692ZM66.3972 47.3173C70.8351 49.8795 75.3999 47.5076 77.6452 43.6185C78.6378 41.8993 79.2059 39.8905 79.3687 37.5587C79.5229 33.3971 77.9623 28.5569 73.9504 26.2406C69.4947 23.6682 64.9574 26.0336 62.7024 29.9394C61.7098 31.6586 61.1417 33.6674 60.9789 35.9992C60.8166 40.1339 62.4208 45.0215 66.3972 47.3173Z" fill="white"/>
<path d="M56.0622 50.0323L36.3433 50.0516V23.435H41.2833V47.9508H56.0622V50.0323Z" fill="white"/>
<path d="M29.6991 47.97L31.9949 50.0323H24.7591V25.69L22.4634 23.435H29.6991V47.97Z" fill="white"/>
<path d="M4.9195 25.3434V36.734H8.58862C11.9913 36.734 14.6765 34.3055 14.7995 31.1062V30.9713C14.6765 27.7526 12.0118 25.3434 8.58862 25.3434H4.9195ZM8.62962 38.8348H4.9195V50.0519H0V23.2426H8.62962C11.5608 23.2426 14.1845 24.0328 16.1728 25.3434C18.3661 26.7889 19.6985 28.7934 19.6985 31.0483C19.6985 33.2841 18.3661 35.2885 16.1728 36.734C14.1845 38.0446 11.5608 38.8348 8.62962 38.8348Z" fill="white"/>
<path d="M103.419 63.7396H102.927L100.894 59.0687V63.7323H100.498V58.6755L101.685 58.6681L103.46 62.7474L105.433 58.6608H106.543V63.7323H105.657V59.1128L103.419 63.7396Z" fill="white"/>
<path d="M91.2685 61.6927H93.1317L92.2497 59.6567L91.2685 61.6927ZM92.7826 58.6608L94.9876 63.7543H94.0247L93.3044 62.0896H91.0774L90.2762 63.7543H89.8315L92.2864 58.6608H92.7826Z" fill="white"/>
<path d="M84.3135 63.7523H83.2477L81.741 61.573H81.0942L81.0868 63.7523H80.2012L80.2122 58.5816H81.7594C82.024 58.5816 82.2702 58.6171 82.498 58.6881C82.7283 58.7567 82.9329 58.8535 83.1118 58.9785C83.3102 59.1181 83.4646 59.281 83.5748 59.4672C83.6875 59.651 83.7439 59.8507 83.7439 60.0663C83.7439 60.2231 83.7145 60.3701 83.6557 60.5073C83.5993 60.642 83.5221 60.7645 83.4241 60.8748C83.3286 60.985 83.2171 61.0818 83.0897 61.1651C82.9648 61.2484 82.8325 61.3182 82.6928 61.3746L84.3135 63.7523ZM81.752 61.1541C81.9039 61.1541 82.046 61.1271 82.1783 61.0732C82.3131 61.0169 82.4307 60.9409 82.5311 60.8454C82.6316 60.7498 82.7112 60.6371 82.77 60.5073C82.8312 60.375 82.8643 60.2329 82.8692 60.081V60.0552C82.8643 59.9033 82.8312 59.7625 82.77 59.6326C82.7112 59.5003 82.6316 59.3864 82.5311 59.2908C82.4331 59.1928 82.318 59.1169 82.1857 59.063C82.0534 59.0066 81.91 58.9785 81.7557 58.9785H81.0942V61.1541H81.752Z" fill="white"/>
<path d="M70.4285 63.7501C70.1811 63.7501 69.9385 63.7231 69.7009 63.6692C69.4632 63.6129 69.2366 63.532 69.021 63.4267C68.8079 63.3189 68.6094 63.1866 68.4257 63.0298C68.2444 62.8705 68.0839 62.6868 67.9442 62.4785C67.6845 62.0939 67.5547 61.6664 67.5547 61.196C67.5547 60.9534 67.589 60.7231 67.6576 60.5051C67.7286 60.2846 67.8266 60.08 67.9516 59.8913C68.079 59.7027 68.2297 59.5324 68.4036 59.3805C68.58 59.2262 68.7736 59.0939 68.9843 58.9836C69.4155 58.7533 69.8969 58.6382 70.4285 58.6382C70.7813 58.6382 71.1133 58.6908 71.4245 58.7962C71.7381 58.8991 72.021 59.0461 72.2734 59.2372V60.3617C72.1999 60.1633 72.1031 59.9795 71.9831 59.8105C71.8655 59.639 71.727 59.492 71.5678 59.3695C71.411 59.247 71.2358 59.1514 71.0423 59.0828C70.8512 59.0118 70.6466 58.9763 70.4285 58.9763C70.2399 58.9763 70.061 59.0032 69.892 59.0571C69.7229 59.1086 69.5649 59.1821 69.4179 59.2776C69.2734 59.3732 69.1411 59.4883 69.021 59.6231C68.901 59.7554 68.7968 59.9024 68.7086 60.0641C68.5298 60.3973 68.4404 60.7648 68.4404 61.1666C68.4404 61.4483 68.4881 61.7215 68.5837 61.9861C68.6817 62.2482 68.8177 62.4822 68.9916 62.688C69.168 62.8914 69.3775 63.0543 69.62 63.1768C69.865 63.2993 70.1345 63.3605 70.4285 63.3605C70.7789 63.3605 71.0986 63.2687 71.3877 63.0849V61.9677H70.8401L70.4285 61.5671H73.2326L72.821 61.9677H72.2734V63.1511C72.0088 63.3471 71.7172 63.4965 71.3987 63.5994C71.0802 63.6999 70.7568 63.7501 70.4285 63.7501Z" fill="white"/>
<path d="M57.9223 63.8023C57.6896 63.8023 57.4654 63.7729 57.2498 63.7141C57.0342 63.6529 56.8308 63.5671 56.6397 63.4569C56.4511 63.3442 56.2771 63.2082 56.1179 63.049C55.9611 62.8897 55.8239 62.7096 55.7063 62.5087C55.476 62.1167 55.3608 61.6806 55.3608 61.2004C55.3608 60.9603 55.3902 60.73 55.449 60.5095C55.5103 60.2866 55.596 60.0796 55.7063 59.8885C55.8165 59.6949 55.9488 59.5197 56.1032 59.3629C56.26 59.2037 56.4327 59.0677 56.6214 58.955C56.8125 58.8423 57.017 58.7553 57.2351 58.6941C57.4556 58.6304 57.6847 58.5985 57.9223 58.5985C58.1551 58.5985 58.3792 58.6279 58.5948 58.6867C58.8129 58.7455 59.0162 58.8313 59.2049 58.944C59.3935 59.0542 59.5663 59.189 59.7231 59.3482C59.8823 59.5075 60.0207 59.6876 60.1383 59.8885C60.3686 60.2805 60.4838 60.7178 60.4838 61.2004C60.4838 61.4381 60.4532 61.6684 60.3919 61.8913C60.3331 62.1118 60.2474 62.3189 60.1347 62.5124C60.0244 62.706 59.8921 62.8824 59.7378 63.0416C59.5834 63.1984 59.4107 63.3332 59.2196 63.4459C59.0309 63.5586 58.8264 63.6468 58.6059 63.7105C58.3878 63.7717 58.16 63.8023 57.9223 63.8023ZM58.2714 63.3025C58.5042 63.3025 58.7088 63.2548 58.8852 63.1592C59.0616 63.0612 59.2086 62.9338 59.3262 62.777C59.4462 62.6178 59.5356 62.4377 59.5944 62.2368C59.6557 62.0334 59.6863 61.8276 59.6863 61.6194C59.6863 61.416 59.6606 61.2115 59.6091 61.0057C59.5577 60.7974 59.4842 60.599 59.3886 60.4103C59.2931 60.2192 59.1767 60.0428 59.0395 59.8811C58.9048 59.717 58.7541 59.5761 58.5875 59.4585C58.2518 59.2208 57.9076 59.102 57.5548 59.102C57.3196 59.102 57.1138 59.151 56.9374 59.249C56.761 59.3446 56.614 59.472 56.4964 59.6312C56.3788 59.788 56.2894 59.9669 56.2281 60.1678C56.1693 60.3687 56.1399 60.5745 56.1399 60.7852C56.1399 60.9885 56.1657 61.1931 56.2171 61.3989C56.2686 61.6047 56.3421 61.8031 56.4376 61.9942C56.5332 62.1829 56.6483 62.3593 56.7831 62.5234C56.9203 62.6851 57.0722 62.8248 57.2388 62.9424C57.5793 63.1825 57.9235 63.3025 58.2714 63.3025Z" fill="white"/>
<path d="M48.9204 63.7523H47.8547L46.3479 61.573H45.7011L45.6938 63.7523H44.8081L44.8191 58.5816H46.3663C46.6309 58.5816 46.8771 58.6171 47.105 58.6881C47.3353 58.7567 47.5399 58.8535 47.7187 58.9785C47.9172 59.1181 48.0715 59.281 48.1818 59.4672C48.2945 59.651 48.3508 59.8507 48.3508 60.0663C48.3508 60.2231 48.3214 60.3701 48.2626 60.5073C48.2063 60.642 48.1291 60.7645 48.0311 60.8748C47.9355 60.985 47.8241 61.0818 47.6967 61.1651C47.5717 61.2484 47.4394 61.3182 47.2998 61.3746L48.9204 63.7523ZM46.359 61.1541C46.5109 61.1541 46.653 61.1271 46.7853 61.0732C46.92 61.0169 47.0376 60.9409 47.1381 60.8454C47.2385 60.7498 47.3181 60.6371 47.3769 60.5073C47.4382 60.375 47.4713 60.2329 47.4762 60.081V60.0552C47.4713 59.9033 47.4382 59.7625 47.3769 59.6326C47.3181 59.5003 47.2385 59.3864 47.1381 59.2908C47.0401 59.1928 46.9249 59.1169 46.7926 59.063C46.6603 59.0066 46.517 58.9785 46.3626 58.9785H45.7011V61.1541H46.359Z" fill="white"/>
<path d="M34.9508 63.7331H34.0688V58.6212H35.616C35.8806 58.6212 36.1268 58.6567 36.3547 58.7278C36.585 58.7988 36.7896 58.8968 36.9684 59.0218C37.1669 59.1614 37.3212 59.3243 37.4315 59.5105C37.5442 59.6943 37.6005 59.894 37.6005 60.1096C37.6005 60.3252 37.5442 60.5248 37.4315 60.7086C37.3212 60.8923 37.1669 61.054 36.9684 61.1937C36.7896 61.3186 36.585 61.4166 36.3547 61.4877C36.1268 61.5587 35.8806 61.5943 35.616 61.5943H34.9508V63.7331ZM35.6087 61.1937C35.7606 61.1937 35.9027 61.1667 36.035 61.1128C36.1697 61.0565 36.2861 60.9805 36.3841 60.885C36.4845 60.7894 36.5642 60.6767 36.623 60.5469C36.6842 60.4146 36.7173 60.2725 36.7222 60.1206V60.0949C36.7173 59.9405 36.6842 59.7984 36.623 59.6686C36.5642 59.5363 36.4845 59.4223 36.3841 59.3268C36.2861 59.2312 36.1709 59.1565 36.0386 59.1026C35.9063 59.0487 35.763 59.0218 35.6087 59.0218H34.9508V61.1937H35.6087Z" fill="white"/>
</svg>
