<svg width="73" height="6" viewBox="0 0 73 6" fill="none" xmlns="http://www.w3.org/2000/svg">
<path d="M69.3503 5.15795H68.8579L66.8256 0.487026V5.1506H66.4287V0.0938014L67.6157 0.0864515L69.3908 4.1657L71.3642 0.0791016H72.4741V5.1506H71.5884V0.531126L69.3503 5.15795Z" fill="white"/>
<path d="M57.1996 3.11097H59.0628L58.1808 1.07503L57.1996 3.11097ZM58.7137 0.0791016L60.9187 5.17265H59.9559L59.2356 3.50787H57.0085L56.2074 5.17265H55.7627L58.2176 0.0791016H58.7137Z" fill="white"/>
<path d="M50.2442 5.17072H49.1784L47.6717 2.99145H47.0249L47.0175 5.17072H46.1318L46.1429 0H47.69C47.9546 0 48.2009 0.0355249 48.4287 0.106575C48.659 0.175175 48.8636 0.27195 49.0424 0.396899C49.2409 0.536549 49.3952 0.699474 49.5055 0.885674C49.6182 1.06942 49.6745 1.2691 49.6745 1.4847C49.6745 1.6415 49.6451 1.7885 49.5863 1.9257C49.53 2.06045 49.4528 2.18295 49.3548 2.2932C49.2593 2.40345 49.1478 2.50022 49.0204 2.58352C48.8954 2.66682 48.7631 2.73665 48.6235 2.793L50.2442 5.17072ZM47.6827 2.5725C47.8346 2.5725 47.9767 2.54555 48.109 2.49165C48.2437 2.4353 48.3613 2.35935 48.4618 2.2638C48.5622 2.16825 48.6419 2.05555 48.7007 1.9257C48.7619 1.7934 48.795 1.6513 48.7999 1.4994V1.47367C48.795 1.32177 48.7619 1.1809 48.7007 1.05105C48.6419 0.918749 48.5622 0.804824 48.4618 0.709274C48.3638 0.611275 48.2486 0.535325 48.1163 0.481424C47.984 0.425075 47.8407 0.396899 47.6864 0.396899H47.0249V2.5725H47.6827Z" fill="white"/>
<path d="M36.3602 5.16856C36.1127 5.16856 35.8702 5.14161 35.6325 5.08771C35.3949 5.03136 35.1683 4.95051 34.9527 4.84516C34.7395 4.73736 34.5411 4.60506 34.3573 4.44826C34.176 4.28901 34.0155 4.10526 33.8759 3.89701C33.6162 3.51236 33.4863 3.08484 33.4863 2.61444C33.4863 2.37189 33.5206 2.14159 33.5892 1.92354C33.6603 1.70304 33.7583 1.49846 33.8832 1.30982C34.0106 1.12117 34.1613 0.95089 34.3353 0.79899C34.5117 0.64464 34.7052 0.512341 34.9159 0.402091C35.3471 0.171791 35.8285 0.0566406 36.3602 0.0566406C36.713 0.0566406 37.0449 0.109316 37.3561 0.214666C37.6697 0.317566 37.9527 0.464566 38.205 0.655666V1.78021C38.1315 1.58177 38.0348 1.39802 37.9147 1.22897C37.7971 1.05747 37.6587 0.910465 37.4994 0.787965C37.3426 0.665465 37.1675 0.569916 36.9739 0.501316C36.7828 0.430266 36.5782 0.39474 36.3602 0.39474C36.1715 0.39474 35.9927 0.421691 35.8236 0.475591C35.6546 0.527041 35.4965 0.600541 35.3495 0.69609C35.205 0.79164 35.0727 0.90679 34.9527 1.04154C34.8326 1.17384 34.7285 1.32084 34.6403 1.48254C34.4614 1.81574 34.372 2.18324 34.372 2.58504C34.372 2.86679 34.4198 3.13996 34.5153 3.40456C34.6133 3.66671 34.7493 3.90069 34.9233 4.10649C35.0997 4.30984 35.3091 4.47276 35.5517 4.59526C35.7967 4.71776 36.0662 4.77901 36.3602 4.77901C36.7105 4.77901 37.0302 4.68714 37.3193 4.50339V3.38619H36.7718L36.3602 2.98561H39.1642L38.7526 3.38619H38.205V4.56954C37.9404 4.76554 37.6489 4.91499 37.3304 5.01789C37.0119 5.11834 36.6885 5.16856 36.3602 5.16856Z" fill="white"/>
<path d="M23.8535 5.22089C23.6207 5.22089 23.3965 5.19149 23.1809 5.13269C22.9653 5.07144 22.762 4.98569 22.5709 4.87544C22.3822 4.76274 22.2083 4.62676 22.049 4.46751C21.8922 4.30826 21.755 4.12819 21.6374 3.92729C21.4071 3.53529 21.292 3.09919 21.292 2.61899C21.292 2.37889 21.3214 2.14859 21.3802 1.92809C21.4414 1.70514 21.5272 1.49811 21.6374 1.30701C21.7477 1.11346 21.88 0.938289 22.0343 0.78149C22.1911 0.622239 22.3639 0.486265 22.5525 0.373565C22.7436 0.260865 22.9482 0.17389 23.1662 0.11264C23.3867 0.0489398 23.6158 0.0170898 23.8535 0.0170898C24.0862 0.0170898 24.3104 0.0464899 24.526 0.10529C24.744 0.16409 24.9474 0.24984 25.136 0.36254C25.3247 0.47279 25.4974 0.60754 25.6542 0.766789C25.8135 0.926039 25.9519 1.10611 26.0695 1.30701C26.2998 1.69901 26.4149 2.13634 26.4149 2.61899C26.4149 2.85664 26.3843 3.08694 26.3231 3.30989C26.2643 3.53039 26.1785 3.73741 26.0658 3.93096C25.9556 4.12451 25.8233 4.30091 25.6689 4.46016C25.5146 4.61696 25.3418 4.75171 25.1507 4.86441C24.9621 4.97711 24.7575 5.06531 24.537 5.12901C24.319 5.19026 24.0911 5.22089 23.8535 5.22089ZM24.2026 4.72109C24.4353 4.72109 24.6399 4.67331 24.8163 4.57776C24.9927 4.47976 25.1397 4.35236 25.2573 4.19556C25.3774 4.03631 25.4668 3.85624 25.5256 3.65534C25.5868 3.45199 25.6175 3.24619 25.6175 3.03794C25.6175 2.83459 25.5917 2.63001 25.5403 2.42421C25.4888 2.21596 25.4153 2.01751 25.3198 1.82886C25.2242 1.63776 25.1079 1.46136 24.9707 1.29966C24.8359 1.13551 24.6852 0.994639 24.5186 0.87704C24.183 0.63939 23.8388 0.520565 23.486 0.520565C23.2508 0.520565 23.045 0.569565 22.8686 0.667565C22.6922 0.763115 22.5452 0.890514 22.4276 1.04976C22.31 1.20656 22.2205 1.38541 22.1593 1.58631C22.1005 1.78721 22.0711 1.99301 22.0711 2.20371C22.0711 2.40706 22.0968 2.61164 22.1483 2.81744C22.1997 3.02324 22.2732 3.22169 22.3688 3.41279C22.4643 3.60144 22.5795 3.77784 22.7142 3.94199C22.8514 4.10369 23.0033 4.24334 23.1699 4.36094C23.5105 4.60104 23.8547 4.72109 24.2026 4.72109Z" fill="white"/>
<path d="M14.8516 5.17072H13.7858L12.2791 2.99145H11.6323L11.6249 5.17072H10.7393L10.7503 0H12.2975C12.5621 0 12.8083 0.0355249 13.0361 0.106575C13.2664 0.175175 13.471 0.27195 13.6499 0.396899C13.8483 0.536549 14.0027 0.699474 14.1129 0.885674C14.2256 1.06942 14.282 1.2691 14.282 1.4847C14.282 1.6415 14.2526 1.7885 14.1938 1.9257C14.1374 2.06045 14.0602 2.18295 13.9622 2.2932C13.8667 2.40345 13.7552 2.50022 13.6278 2.58352C13.5029 2.66682 13.3706 2.73665 13.2309 2.793L14.8516 5.17072ZM12.2901 2.5725C12.442 2.5725 12.5841 2.54555 12.7164 2.49165C12.8512 2.4353 12.9688 2.35935 13.0692 2.2638C13.1697 2.16825 13.2493 2.05555 13.3081 1.9257C13.3693 1.7934 13.4024 1.6513 13.4073 1.4994V1.47367C13.4024 1.32177 13.3693 1.1809 13.3081 1.05105C13.2493 0.918749 13.1697 0.804824 13.0692 0.709274C12.9712 0.611275 12.8561 0.535325 12.7238 0.481424C12.5915 0.425075 12.4481 0.396899 12.2938 0.396899H11.6323V2.5725H12.2901Z" fill="white"/>
<path d="M0.882001 5.15147H0V0.0395508H1.54717C1.81177 0.0395508 2.058 0.0750758 2.28585 0.146126C2.51615 0.217176 2.72073 0.315175 2.89958 0.440125C3.09803 0.579775 3.25237 0.7427 3.36262 0.9289C3.47532 1.11265 3.53167 1.31232 3.53167 1.52792C3.53167 1.74352 3.47532 1.9432 3.36262 2.12695C3.25237 2.3107 3.09803 2.4724 2.89958 2.61205C2.72073 2.737 2.51615 2.835 2.28585 2.90605C2.058 2.9771 1.81177 3.01262 1.54717 3.01262H0.882001V5.15147ZM1.53983 2.61205C1.69173 2.61205 1.83382 2.5851 1.96612 2.5312C2.10087 2.47485 2.21725 2.3989 2.31525 2.30335C2.4157 2.2078 2.49533 2.0951 2.55413 1.96525C2.61538 1.83295 2.64845 1.69085 2.65335 1.53895V1.51322C2.64845 1.35887 2.61538 1.21677 2.55413 1.08692C2.49533 0.954625 2.4157 0.8407 2.31525 0.74515C2.21725 0.6496 2.1021 0.574875 1.9698 0.520976C1.8375 0.467075 1.69418 0.440125 1.53983 0.440125H0.882001V2.61205H1.53983Z" fill="white"/>
</svg>
