<svg width="73" height="6" viewBox="0 0 73 6" fill="none" xmlns="http://www.w3.org/2000/svg">
<path d="M69.3503 5.15807H68.8579L66.8256 0.487149V5.15072H66.4287V0.0939234L67.6157 0.0865735L69.3908 4.16582L71.3642 0.0792236H72.4741V5.15072H71.5884V0.531248L69.3503 5.15807Z" fill="white"/>
<path d="M57.1996 3.1111H59.0628L58.1808 1.07515L57.1996 3.1111ZM58.7137 0.0792236L60.9187 5.17277H59.9559L59.2356 3.508H57.0085L56.2074 5.17277H55.7627L58.2176 0.0792236H58.7137Z" fill="white"/>
<path d="M50.2442 5.17072H49.1784L47.6717 2.99145H47.0249L47.0175 5.17072H46.1318L46.1429 0H47.69C47.9546 0 48.2009 0.0355249 48.4287 0.106575C48.659 0.175175 48.8636 0.27195 49.0424 0.396899C49.2409 0.536549 49.3952 0.699474 49.5055 0.885674C49.6182 1.06942 49.6745 1.2691 49.6745 1.4847C49.6745 1.6415 49.6451 1.7885 49.5863 1.9257C49.53 2.06045 49.4528 2.18295 49.3548 2.2932C49.2593 2.40345 49.1478 2.50022 49.0204 2.58352C48.8954 2.66682 48.7631 2.73665 48.6235 2.793L50.2442 5.17072ZM47.6827 2.5725C47.8346 2.5725 47.9767 2.54555 48.109 2.49165C48.2437 2.4353 48.3613 2.35935 48.4618 2.2638C48.5622 2.16825 48.6419 2.05555 48.7007 1.9257C48.7619 1.7934 48.795 1.6513 48.7999 1.4994V1.47367C48.795 1.32177 48.7619 1.1809 48.7007 1.05105C48.6419 0.918749 48.5622 0.804824 48.4618 0.709274C48.3638 0.611275 48.2486 0.535325 48.1163 0.481424C47.984 0.425075 47.8407 0.396899 47.6864 0.396899H47.0249V2.5725H47.6827Z" fill="white"/>
<path d="M36.3602 5.16852C36.1127 5.16852 35.8702 5.14157 35.6325 5.08767C35.3949 5.03132 35.1683 4.95047 34.9527 4.84512C34.7395 4.73732 34.5411 4.60502 34.3573 4.44822C34.176 4.28897 34.0155 4.10522 33.8759 3.89697C33.6162 3.51232 33.4863 3.08479 33.4863 2.61439C33.4863 2.37184 33.5206 2.14154 33.5892 1.92349C33.6603 1.70299 33.7583 1.49842 33.8832 1.30977C34.0106 1.12112 34.1613 0.950844 34.3353 0.798944C34.5117 0.644595 34.7052 0.512295 34.9159 0.402045C35.3471 0.171745 35.8285 0.0565948 36.3602 0.0565948C36.713 0.0565948 37.0449 0.10927 37.3561 0.21462C37.6697 0.31752 37.9527 0.46452 38.205 0.65562V1.78017C38.1315 1.58172 38.0348 1.39797 37.9147 1.22892C37.7971 1.05742 37.6587 0.91042 37.4994 0.787919C37.3426 0.66542 37.1675 0.56987 36.9739 0.50127C36.7828 0.43022 36.5782 0.394695 36.3602 0.394695C36.1715 0.394695 35.9927 0.421645 35.8236 0.475545C35.6546 0.526995 35.4965 0.600495 35.3495 0.696045C35.205 0.791595 35.0727 0.906745 34.9527 1.04149C34.8326 1.17379 34.7285 1.32079 34.6403 1.48249C34.4614 1.81569 34.372 2.18319 34.372 2.58499C34.372 2.86674 34.4198 3.13992 34.5153 3.40452C34.6133 3.66667 34.7493 3.90064 34.9233 4.10644C35.0997 4.30979 35.3091 4.47272 35.5517 4.59522C35.7967 4.71772 36.0662 4.77897 36.3602 4.77897C36.7105 4.77897 37.0302 4.68709 37.3193 4.50334V3.38614H36.7718L36.3602 2.98557H39.1642L38.7526 3.38614H38.205V4.56949C37.9404 4.76549 37.6489 4.91494 37.3304 5.01784C37.0119 5.11829 36.6885 5.16852 36.3602 5.16852Z" fill="white"/>
<path d="M23.8535 5.22078C23.6207 5.22078 23.3965 5.19138 23.1809 5.13258C22.9653 5.07133 22.762 4.98558 22.5709 4.87533C22.3822 4.76263 22.2083 4.62666 22.049 4.46741C21.8922 4.30816 21.755 4.12808 21.6374 3.92718C21.4071 3.53518 21.292 3.09908 21.292 2.61888C21.292 2.37878 21.3214 2.14848 21.3802 1.92798C21.4414 1.70503 21.5272 1.49801 21.6374 1.30691C21.7477 1.11336 21.88 0.938183 22.0343 0.781383C22.1911 0.622133 22.3639 0.486158 22.5525 0.373458C22.7436 0.260758 22.9482 0.173783 23.1662 0.112533C23.3867 0.048833 23.6158 0.016983 23.8535 0.016983C24.0862 0.016983 24.3104 0.0463831 24.526 0.105183C24.744 0.163983 24.9474 0.249733 25.136 0.362433C25.3247 0.472683 25.4974 0.607433 25.6542 0.766683C25.8135 0.925933 25.9519 1.10601 26.0695 1.30691C26.2998 1.69891 26.4149 2.13623 26.4149 2.61888C26.4149 2.85653 26.3843 3.08683 26.3231 3.30978C26.2643 3.53028 26.1785 3.73731 26.0658 3.93086C25.9556 4.12441 25.8233 4.30081 25.6689 4.46006C25.5146 4.61686 25.3418 4.75161 25.1507 4.8643C24.9621 4.977 24.7575 5.0652 24.537 5.1289C24.319 5.19015 24.0911 5.22078 23.8535 5.22078ZM24.2026 4.72098C24.4353 4.72098 24.6399 4.67321 24.8163 4.57766C24.9927 4.47966 25.1397 4.35226 25.2573 4.19546C25.3774 4.03621 25.4668 3.85613 25.5256 3.65523C25.5868 3.45188 25.6175 3.24608 25.6175 3.03783C25.6175 2.83448 25.5917 2.62991 25.5403 2.42411C25.4888 2.21586 25.4153 2.01741 25.3198 1.82876C25.2242 1.63766 25.1079 1.46126 24.9707 1.29956C24.8359 1.13541 24.6852 0.994533 24.5186 0.876933C24.183 0.639283 23.8388 0.520458 23.486 0.520458C23.2508 0.520458 23.045 0.569458 22.8686 0.667458C22.6922 0.763008 22.5452 0.890408 22.4276 1.04966C22.31 1.20646 22.2205 1.38531 22.1593 1.58621C22.1005 1.78711 22.0711 1.99291 22.0711 2.20361C22.0711 2.40696 22.0968 2.61153 22.1483 2.81733C22.1997 3.02313 22.2732 3.22158 22.3688 3.41268C22.4643 3.60133 22.5795 3.77773 22.7142 3.94188C22.8514 4.10358 23.0033 4.24323 23.1699 4.36083C23.5105 4.60093 23.8547 4.72098 24.2026 4.72098Z" fill="white"/>
<path d="M14.8516 5.17072H13.7858L12.2791 2.99145H11.6323L11.6249 5.17072H10.7393L10.7503 0H12.2975C12.5621 0 12.8083 0.0355249 13.0361 0.106575C13.2664 0.175175 13.471 0.27195 13.6499 0.396899C13.8483 0.536549 14.0027 0.699474 14.1129 0.885674C14.2256 1.06942 14.282 1.2691 14.282 1.4847C14.282 1.6415 14.2526 1.7885 14.1938 1.9257C14.1374 2.06045 14.0602 2.18295 13.9622 2.2932C13.8667 2.40345 13.7552 2.50022 13.6278 2.58352C13.5029 2.66682 13.3706 2.73665 13.2309 2.793L14.8516 5.17072ZM12.2901 2.5725C12.442 2.5725 12.5841 2.54555 12.7164 2.49165C12.8512 2.4353 12.9688 2.35935 13.0692 2.2638C13.1697 2.16825 13.2493 2.05555 13.3081 1.9257C13.3693 1.7934 13.4024 1.6513 13.4073 1.4994V1.47367C13.4024 1.32177 13.3693 1.1809 13.3081 1.05105C13.2493 0.918749 13.1697 0.804824 13.0692 0.709274C12.9712 0.611275 12.8561 0.535325 12.7238 0.481424C12.5915 0.425075 12.4481 0.396899 12.2938 0.396899H11.6323V2.5725H12.2901Z" fill="white"/>
<path d="M0.882001 5.15153H0V0.0396118H1.54717C1.81177 0.0396118 2.058 0.0751368 2.28585 0.146187C2.51615 0.217237 2.72073 0.315236 2.89958 0.440186C3.09803 0.579836 3.25237 0.742761 3.36262 0.928961C3.47532 1.11271 3.53167 1.31239 3.53167 1.52799C3.53167 1.74359 3.47532 1.94326 3.36262 2.12701C3.25237 2.31076 3.09803 2.47246 2.89958 2.61211C2.72073 2.73706 2.51615 2.83506 2.28585 2.90611C2.058 2.97716 1.81177 3.01268 1.54717 3.01268H0.882001V5.15153ZM1.53983 2.61211C1.69173 2.61211 1.83382 2.58516 1.96612 2.53126C2.10087 2.47491 2.21725 2.39896 2.31525 2.30341C2.4157 2.20786 2.49533 2.09516 2.55413 1.96531C2.61538 1.83301 2.64845 1.69091 2.65335 1.53901V1.51329C2.64845 1.35894 2.61538 1.21684 2.55413 1.08699C2.49533 0.954686 2.4157 0.840761 2.31525 0.745211C2.21725 0.649661 2.1021 0.574937 1.9698 0.521037C1.8375 0.467137 1.69418 0.440186 1.53983 0.440186H0.882001V2.61211H1.53983Z" fill="white"/>
</svg>
